<svg width="35" height="35" viewBox="0 0 35 35" fill="none" xmlns="http://www.w3.org/2000/svg">
<path d="M13.443 11C14.082 11 14.673 11.05 15.213 11.198C15.754 11.297 16.197 11.495 16.59 11.742C16.984 11.99 17.279 12.336 17.475 12.781C17.672 13.226 17.771 13.771 17.771 14.364C17.771 15.057 17.623 15.65 17.279 16.095C16.984 16.541 16.492 16.936 15.902 17.233C16.738 17.481 17.377 17.926 17.771 18.52C18.164 19.113 18.41 19.855 18.41 20.696C18.41 21.389 18.262 21.982 18.016 22.477C17.771 22.972 17.377 23.417 16.934 23.714C16.4528 24.0323 15.9208 24.2663 15.361 24.406C14.771 24.555 14.181 24.654 13.591 24.654H7V11H13.443ZM13.049 16.54C13.59 16.54 14.033 16.392 14.377 16.145C14.721 15.898 14.869 15.452 14.869 14.908C14.869 14.611 14.819 14.315 14.721 14.117C14.623 13.919 14.475 13.77 14.279 13.622C14.082 13.523 13.885 13.424 13.639 13.375C13.393 13.325 13.148 13.325 12.852 13.325H10V16.541H13.05L13.049 16.54ZM13.197 22.378C13.492 22.378 13.787 22.328 14.033 22.279C14.279 22.229 14.525 22.131 14.721 21.982C14.9214 21.8372 15.089 21.6519 15.213 21.438C15.311 21.191 15.41 20.894 15.41 20.548C15.41 19.855 15.213 19.36 14.82 19.014C14.426 18.717 13.885 18.569 13.246 18.569H10V22.379L13.197 22.378ZM22.689 22.328C23.082 22.724 23.672 22.922 24.459 22.922C25 22.922 25.492 22.774 25.885 22.527C26.279 22.23 26.525 21.933 26.623 21.637H29.033C28.639 22.823 28.049 23.664 27.263 24.209C26.475 24.703 25.541 25 24.41 25C23.6864 25.0022 22.9688 24.8679 22.295 24.604C21.6887 24.3766 21.148 24.0029 20.721 23.516C20.2643 23.0606 19.9267 22.4997 19.738 21.883C19.492 21.24 19.393 20.548 19.393 19.756C19.393 19.014 19.492 18.322 19.738 17.678C19.9749 17.0584 20.3252 16.4883 20.771 15.997C21.2201 15.5358 21.7543 15.166 22.344 14.908C23.0007 14.6441 23.7022 14.5096 24.41 14.512C25.246 14.512 25.984 14.661 26.623 15.007C27.263 15.353 27.754 15.749 28.147 16.343C28.541 16.887 28.837 17.53 29.033 18.223C29.131 18.915 29.18 19.608 29.131 20.399H22C22 21.191 22.295 21.933 22.689 22.329V22.328ZM25.787 17.134C25.443 16.788 24.902 16.59 24.262 16.59C23.82 16.59 23.475 16.69 23.18 16.838C22.885 16.986 22.689 17.184 22.492 17.382C22.3107 17.5732 22.1905 17.8141 22.147 18.074C22.098 18.322 22.049 18.52 22.049 18.717H26.475C26.377 17.975 26.131 17.481 25.787 17.134ZM21.459 11.94H26.967V13.276H21.46V11.94H21.459Z" fill="#FCFCFC"/>
<circle cx="17.5" cy="17.5" r="17" stroke="#FCFCFC"/>
</svg>
