<svg width="150" height="23" viewBox="0 0 150 23" fill="none" xmlns="http://www.w3.org/2000/svg">
<path d="M0.596434 1.22853H3.19287V22H0.596434V1.22853ZM10.9822 22H8.38573V1.22853H12.943L31.9835 19.4036V1.22853H34.58V22H31.1181L10.9822 3.39223V22ZM60.9906 1.22853H64.0197L52.7685 22H49.3066L38.0554 1.22853H41.0846L51.0376 20.269L60.9906 1.22853ZM67.4816 1.22853H70.0781V22H67.4816V1.22853ZM96.8944 7.71962C96.8944 6.63777 96.7772 5.78131 96.5428 5.15023C96.3084 4.51915 95.9207 4.04133 95.3798 3.71678C94.8389 3.39223 94.1266 3.18487 93.2431 3.09472C92.3686 3.00456 91.2823 2.95949 89.9841 2.95949H83.9122C82.7582 2.95949 81.7846 2.99555 80.9912 3.06767C80.2069 3.13078 79.5578 3.26601 79.0439 3.47336C78.53 3.68072 78.1333 3.97823 77.8539 4.36589C77.5744 4.75355 77.3715 5.26743 77.2453 5.90752C77.1191 6.54761 77.047 7.33646 77.029 8.27406C77.0109 9.20265 77.0019 10.316 77.0019 11.6143C77.0019 12.9125 77.0109 14.0304 77.029 14.968C77.056 15.8966 77.1326 16.6809 77.2588 17.321C77.3851 17.9611 77.5834 18.475 77.8539 18.8626C78.1333 19.2503 78.53 19.5478 79.0439 19.7552C79.5578 19.9625 80.2069 20.1023 80.9912 20.1744C81.7846 20.2375 82.7582 20.269 83.9122 20.269H89.9841C90.9938 20.269 91.8638 20.242 92.594 20.1879C93.3243 20.1338 93.9463 20.0346 94.4602 19.8904C94.9741 19.7462 95.3888 19.5478 95.7043 19.2954C96.0199 19.043 96.2633 18.7274 96.4346 18.3488C96.6149 17.9611 96.7366 17.5013 96.7997 16.9694C96.8628 16.4285 96.8944 15.7974 96.8944 15.0762H99.4908C99.4908 15.9417 99.4367 16.726 99.3285 17.4292C99.2203 18.1234 99.0265 18.7454 98.747 19.2954C98.4766 19.8363 98.1114 20.3051 97.6517 20.7018C97.1919 21.0985 96.6104 21.4275 95.9072 21.689C95.204 21.9414 94.3656 22.1262 93.3919 22.2434C92.4182 22.3696 91.2823 22.4327 89.9841 22.4327H83.9122C82.3255 22.4327 80.9867 22.3336 79.8958 22.1352C78.814 21.9459 77.9215 21.6574 77.2183 21.2698C76.5151 20.8731 75.9696 20.3772 75.582 19.7822C75.2033 19.1872 74.9239 18.4885 74.7435 17.6861C74.5723 16.8838 74.4731 15.9777 74.446 14.968C74.419 13.9583 74.4055 12.8404 74.4055 11.6143C74.4055 10.3882 74.419 9.27026 74.446 8.26054C74.4731 7.25081 74.5723 6.34477 74.7435 5.5424C74.9239 4.74003 75.2033 4.04133 75.582 3.44632C75.9696 2.8513 76.5151 2.35996 77.2183 1.9723C77.9215 1.57562 78.814 1.28262 79.8958 1.0933C80.9867 0.894962 82.3255 0.795792 83.9122 0.795792H89.9841C91.2823 0.795792 92.4182 0.8589 93.3919 0.985116C94.3656 1.10232 95.204 1.28713 95.9072 1.53956C96.6104 1.78298 97.1919 2.09401 97.6517 2.47266C98.1114 2.8513 98.4766 3.29756 98.747 3.81144C99.0265 4.32532 99.2203 4.90681 99.3285 5.55592C99.4367 6.20503 99.4908 6.92626 99.4908 7.71962H96.8944ZM126.334 1.22853V3.39223H115.948V22H113.352V3.39223H102.966V1.22853H126.334ZM144.076 17.2399H127.632L125.036 22H122.007L134.123 1.22853H137.585L149.702 22H146.673L144.076 17.2399ZM142.778 15.0762L135.854 2.95949L128.931 15.0762H142.778Z" fill="#89CEEB"/>
</svg>
