<svg width="35" height="35" viewBox="0 0 35 35" fill="none" xmlns="http://www.w3.org/2000/svg">
<path d="M23.47 12.21C22.4271 12.2283 21.4224 12.6052 20.6247 13.2772C19.8271 13.9492 19.2851 14.8754 19.09 15.9C18.1107 14.3779 17.3436 12.7294 16.81 11H14.55V17C14.55 17.5676 14.3245 18.1119 13.9232 18.5132C13.5219 18.9145 12.9776 19.14 12.41 19.14C11.8424 19.14 11.2981 18.9145 10.8968 18.5132C10.4955 18.1119 10.27 17.5676 10.27 17V11L8 11.05V17.05C8.00663 18.217 8.47656 19.3335 9.30641 20.1539C10.1363 20.9744 11.258 21.4316 12.425 21.425C13.592 21.4184 14.7085 20.9484 15.5289 20.1186C16.3494 19.2887 16.8066 18.167 16.8 17V16C17.2798 16.9411 17.8314 17.8437 18.45 18.7L17.07 25.31H19.39L20.39 20.5C21.3168 21.0956 22.3984 21.4051 23.5 21.39C24.712 21.39 25.8744 20.9085 26.7315 20.0515C27.5885 19.1944 28.07 18.032 28.07 16.82C28.07 15.608 27.5885 14.4456 26.7315 13.5885C25.8744 12.7315 24.712 12.25 23.5 12.25L23.47 12.21ZM23.47 19.04C22.5303 19.0097 21.6298 18.6565 20.92 18.04L21.15 17.13V17.08C21.31 16.08 21.81 14.48 23.5 14.48C23.7963 14.4774 24.0902 14.5333 24.3649 14.6445C24.6395 14.7558 24.8895 14.9202 25.1004 15.1284C25.3113 15.3365 25.479 15.5843 25.594 15.8574C25.7089 16.1305 25.7687 16.4237 25.77 16.72C25.7486 17.32 25.504 17.8903 25.0841 18.3194C24.6643 18.7486 24.0994 19.0055 23.5 19.04H23.47Z" fill="#FCFCFC"/>
<circle cx="17.5" cy="17.5" r="17" stroke="#FCFCFC"/>
</svg>
