<svg width="229" height="230" viewBox="0 0 229 230" fill="none" xmlns="http://www.w3.org/2000/svg">
<path d="M75.9738 109.25C74.5238 109.25 73.3072 109.033 72.3238 108.6C71.3405 108.15 70.5822 107.575 70.0488 106.875C69.5322 106.158 69.2572 105.4 69.2238 104.6C69.2238 104.467 69.2738 104.35 69.3738 104.25C69.4905 104.133 69.6238 104.075 69.7738 104.075H71.0488C71.2488 104.075 71.3988 104.125 71.4988 104.225C71.5988 104.325 71.6655 104.442 71.6988 104.575C71.7822 104.975 71.9822 105.375 72.2988 105.775C72.6322 106.158 73.0905 106.483 73.6738 106.75C74.2738 107 75.0405 107.125 75.9738 107.125C77.4072 107.125 78.4572 106.875 79.1238 106.375C79.8072 105.858 80.1488 105.175 80.1488 104.325C80.1488 103.742 79.9655 103.275 79.5988 102.925C79.2488 102.558 78.7072 102.233 77.9738 101.95C77.2405 101.667 76.2905 101.358 75.1238 101.025C73.9072 100.675 72.8988 100.292 72.0988 99.875C71.2988 99.4583 70.6988 98.9417 70.2988 98.325C69.9155 97.7083 69.7238 96.925 69.7238 95.975C69.7238 95.075 69.9655 94.275 70.4488 93.575C70.9322 92.8583 71.6238 92.2917 72.5238 91.875C73.4405 91.4583 74.5488 91.25 75.8488 91.25C76.8822 91.25 77.7822 91.3917 78.5488 91.675C79.3322 91.9417 79.9822 92.3083 80.4988 92.775C81.0155 93.225 81.4072 93.7167 81.6738 94.25C81.9405 94.7667 82.0822 95.275 82.0988 95.775C82.0988 95.8917 82.0572 96.0083 81.9738 96.125C81.8905 96.225 81.7572 96.275 81.5738 96.275H80.2488C80.1322 96.275 80.0072 96.2417 79.8738 96.175C79.7572 96.1083 79.6655 95.9833 79.5988 95.8C79.4988 95.1167 79.1155 94.5417 78.4488 94.075C77.7822 93.6083 76.9155 93.375 75.8488 93.375C74.7655 93.375 73.8822 93.5833 73.1988 94C72.5322 94.4167 72.1988 95.0667 72.1988 95.95C72.1988 96.5167 72.3572 96.9917 72.6738 97.375C72.9905 97.7417 73.4905 98.0667 74.1738 98.35C74.8572 98.6333 75.7488 98.9333 76.8488 99.25C78.1822 99.6167 79.2738 100.008 80.1238 100.425C80.9738 100.825 81.5988 101.333 81.9988 101.95C82.4155 102.55 82.6238 103.325 82.6238 104.275C82.6238 105.325 82.3488 106.225 81.7988 106.975C81.2488 107.708 80.4738 108.275 79.4738 108.675C78.4905 109.058 77.3238 109.25 75.9738 109.25ZM92.2006 109.25C90.6673 109.25 89.3923 108.967 88.3756 108.4C87.3756 107.833 86.6173 107.042 86.1006 106.025C85.5839 105.008 85.3006 103.825 85.2506 102.475C85.2339 101.792 85.2256 101.058 85.2256 100.275C85.2256 99.4917 85.2339 98.7417 85.2506 98.025C85.3006 96.675 85.5839 95.4917 86.1006 94.475C86.6173 93.4583 87.3756 92.6667 88.3756 92.1C89.3923 91.5333 90.6673 91.25 92.2006 91.25C93.3506 91.25 94.3589 91.4083 95.2256 91.725C96.0923 92.0417 96.8089 92.4667 97.3756 93C97.9589 93.5333 98.4006 94.1333 98.7006 94.8C99.0006 95.45 99.1673 96.125 99.2006 96.825C99.2173 96.975 99.1673 97.1 99.0506 97.2C98.9506 97.3 98.8256 97.35 98.6756 97.35H97.3006C97.1506 97.35 97.0173 97.3083 96.9006 97.225C96.8006 97.1417 96.7256 96.9917 96.6756 96.775C96.3923 95.475 95.8589 94.5833 95.0756 94.1C94.3089 93.6167 93.3423 93.375 92.1756 93.375C90.8423 93.375 89.7839 93.7583 89.0006 94.525C88.2173 95.275 87.7923 96.4833 87.7256 98.15C87.6756 99.5167 87.6756 100.917 87.7256 102.35C87.7923 104.017 88.2173 105.233 89.0006 106C89.7839 106.75 90.8423 107.125 92.1756 107.125C93.3423 107.125 94.3089 106.883 95.0756 106.4C95.8589 105.917 96.3923 105.025 96.6756 103.725C96.7256 103.508 96.8006 103.358 96.9006 103.275C97.0173 103.192 97.1506 103.15 97.3006 103.15H98.6756C98.8256 103.15 98.9506 103.2 99.0506 103.3C99.1673 103.4 99.2173 103.525 99.2006 103.675C99.1673 104.375 99.0006 105.058 98.7006 105.725C98.4006 106.375 97.9589 106.967 97.3756 107.5C96.8089 108.033 96.0923 108.458 95.2256 108.775C94.3589 109.092 93.3506 109.25 92.2006 109.25ZM103.126 109C102.943 109 102.801 108.95 102.701 108.85C102.601 108.733 102.551 108.592 102.551 108.425V92.1C102.551 91.9167 102.601 91.775 102.701 91.675C102.801 91.5583 102.943 91.5 103.126 91.5H109.226C111.109 91.5 112.601 91.9417 113.701 92.825C114.801 93.7083 115.351 95.0167 115.351 96.75C115.351 98.0333 115.026 99.0833 114.376 99.9C113.743 100.7 112.876 101.258 111.776 101.575L115.626 108.225C115.676 108.325 115.701 108.417 115.701 108.5C115.701 108.633 115.643 108.75 115.526 108.85C115.426 108.95 115.309 109 115.176 109H113.976C113.693 109 113.484 108.925 113.351 108.775C113.218 108.625 113.101 108.475 113.001 108.325L109.376 101.975H105.001V108.425C105.001 108.592 104.943 108.733 104.826 108.85C104.726 108.95 104.584 109 104.401 109H103.126ZM105.001 99.85H109.126C110.376 99.85 111.309 99.5917 111.926 99.075C112.543 98.5417 112.851 97.7583 112.851 96.725C112.851 95.7083 112.543 94.9333 111.926 94.4C111.326 93.8667 110.393 93.6 109.126 93.6H105.001V99.85ZM125.183 109.25C123.767 109.25 122.55 109.008 121.533 108.525C120.517 108.025 119.733 107.267 119.183 106.25C118.633 105.217 118.325 103.925 118.258 102.375C118.242 101.642 118.233 100.942 118.233 100.275C118.233 99.5917 118.242 98.8833 118.258 98.15C118.325 96.6167 118.642 95.3417 119.208 94.325C119.792 93.2917 120.592 92.525 121.608 92.025C122.642 91.5083 123.833 91.25 125.183 91.25C126.55 91.25 127.742 91.5083 128.758 92.025C129.792 92.525 130.6 93.2917 131.183 94.325C131.767 95.3417 132.083 96.6167 132.133 98.15C132.167 98.8833 132.183 99.5917 132.183 100.275C132.183 100.942 132.167 101.642 132.133 102.375C132.083 103.925 131.775 105.217 131.208 106.25C130.658 107.267 129.875 108.025 128.858 108.525C127.842 109.008 126.617 109.25 125.183 109.25ZM125.183 107.125C126.467 107.125 127.508 106.742 128.308 105.975C129.125 105.208 129.567 103.967 129.633 102.25C129.667 101.5 129.683 100.833 129.683 100.25C129.683 99.65 129.667 98.9833 129.633 98.25C129.6 97.1 129.383 96.1667 128.983 95.45C128.6 94.7333 128.083 94.2083 127.433 93.875C126.783 93.5417 126.033 93.375 125.183 93.375C124.367 93.375 123.633 93.5417 122.983 93.875C122.333 94.2083 121.808 94.7333 121.408 95.45C121.025 96.1667 120.808 97.1 120.758 98.25C120.742 98.9833 120.733 99.65 120.733 100.25C120.733 100.833 120.742 101.5 120.758 102.25C120.825 103.967 121.267 105.208 122.083 105.975C122.9 106.742 123.933 107.125 125.183 107.125ZM136.402 109C136.219 109 136.077 108.95 135.977 108.85C135.877 108.733 135.827 108.592 135.827 108.425V92.075C135.827 91.9083 135.877 91.775 135.977 91.675C136.077 91.5583 136.219 91.5 136.402 91.5H137.727C137.894 91.5 138.027 91.5583 138.127 91.675C138.227 91.775 138.277 91.9083 138.277 92.075V106.825H146.602C146.786 106.825 146.927 106.883 147.027 107C147.127 107.1 147.177 107.242 147.177 107.425V108.425C147.177 108.592 147.127 108.733 147.027 108.85C146.927 108.95 146.786 109 146.602 109H136.402ZM150.489 109C150.306 109 150.164 108.95 150.064 108.85C149.964 108.733 149.914 108.592 149.914 108.425V92.075C149.914 91.9083 149.964 91.775 150.064 91.675C150.164 91.5583 150.306 91.5 150.489 91.5H151.814C151.981 91.5 152.114 91.5583 152.214 91.675C152.314 91.775 152.364 91.9083 152.364 92.075V106.825H160.689C160.873 106.825 161.014 106.883 161.114 107C161.214 107.1 161.264 107.242 161.264 107.425V108.425C161.264 108.592 161.214 108.733 161.114 108.85C161.014 108.95 160.873 109 160.689 109H150.489ZM82.0933 141C81.9099 141 81.7683 140.95 81.6683 140.85C81.5683 140.733 81.5183 140.592 81.5183 140.425V124.1C81.5183 123.917 81.5683 123.775 81.6683 123.675C81.7683 123.558 81.9099 123.5 82.0933 123.5H87.7683C89.4849 123.5 90.8683 123.758 91.9183 124.275C92.9683 124.792 93.7349 125.558 94.2183 126.575C94.7016 127.575 94.9516 128.808 94.9683 130.275C94.9849 131.025 94.9933 131.683 94.9933 132.25C94.9933 132.817 94.9849 133.467 94.9683 134.2C94.9349 135.733 94.6766 137.008 94.1933 138.025C93.7266 139.025 92.9766 139.775 91.9433 140.275C90.9266 140.758 89.5766 141 87.8933 141H82.0933ZM83.9683 138.875H87.7683C88.9183 138.875 89.8349 138.717 90.5183 138.4C91.2016 138.083 91.6933 137.575 91.9933 136.875C92.3099 136.175 92.4766 135.25 92.4933 134.1C92.5266 133.6 92.5433 133.167 92.5433 132.8C92.5433 132.417 92.5433 132.042 92.5433 131.675C92.5433 131.292 92.5266 130.858 92.4933 130.375C92.4599 128.758 92.0766 127.567 91.3433 126.8C90.6099 126.017 89.3766 125.625 87.6433 125.625H83.9683V138.875ZM105.03 141.25C103.613 141.25 102.396 141.008 101.38 140.525C100.363 140.025 99.5796 139.267 99.0296 138.25C98.4796 137.217 98.1713 135.925 98.1046 134.375C98.0879 133.642 98.0796 132.942 98.0796 132.275C98.0796 131.592 98.0879 130.883 98.1046 130.15C98.1713 128.617 98.4879 127.342 99.0546 126.325C99.6379 125.292 100.438 124.525 101.455 124.025C102.488 123.508 103.68 123.25 105.03 123.25C106.396 123.25 107.588 123.508 108.605 124.025C109.638 124.525 110.446 125.292 111.03 126.325C111.613 127.342 111.93 128.617 111.98 130.15C112.013 130.883 112.03 131.592 112.03 132.275C112.03 132.942 112.013 133.642 111.98 134.375C111.93 135.925 111.621 137.217 111.055 138.25C110.505 139.267 109.721 140.025 108.705 140.525C107.688 141.008 106.463 141.25 105.03 141.25ZM105.03 139.125C106.313 139.125 107.355 138.742 108.155 137.975C108.971 137.208 109.413 135.967 109.48 134.25C109.513 133.5 109.53 132.833 109.53 132.25C109.53 131.65 109.513 130.983 109.48 130.25C109.446 129.1 109.23 128.167 108.83 127.45C108.446 126.733 107.93 126.208 107.28 125.875C106.63 125.542 105.88 125.375 105.03 125.375C104.213 125.375 103.48 125.542 102.83 125.875C102.18 126.208 101.655 126.733 101.255 127.45C100.871 128.167 100.655 129.1 100.605 130.25C100.588 130.983 100.58 131.65 100.58 132.25C100.58 132.833 100.588 133.5 100.605 134.25C100.671 135.967 101.113 137.208 101.93 137.975C102.746 138.742 103.78 139.125 105.03 139.125ZM118.404 141C118.187 141 118.012 140.942 117.879 140.825C117.762 140.708 117.679 140.542 117.629 140.325L114.404 124.275C114.387 124.208 114.379 124.15 114.379 124.1C114.379 124.05 114.379 124.017 114.379 124C114.379 123.867 114.429 123.75 114.529 123.65C114.629 123.55 114.745 123.5 114.879 123.5H116.179C116.529 123.5 116.729 123.642 116.779 123.925L119.329 136.825L122.029 127.975C122.079 127.825 122.162 127.692 122.279 127.575C122.412 127.442 122.595 127.375 122.829 127.375H123.754C124.004 127.375 124.187 127.442 124.304 127.575C124.42 127.692 124.495 127.825 124.529 127.975L127.254 136.825L129.779 123.925C129.829 123.642 130.037 123.5 130.404 123.5H131.704C131.837 123.5 131.954 123.55 132.054 123.65C132.154 123.75 132.204 123.867 132.204 124C132.204 124.017 132.195 124.05 132.179 124.1C132.179 124.15 132.179 124.208 132.179 124.275L128.954 140.325C128.904 140.542 128.812 140.708 128.679 140.825C128.562 140.942 128.395 141 128.179 141H127.204C126.97 141 126.787 140.942 126.654 140.825C126.52 140.708 126.429 140.558 126.379 140.375L123.279 130.85L120.204 140.375C120.137 140.558 120.037 140.708 119.904 140.825C119.787 140.942 119.612 141 119.379 141H118.404ZM136.048 141C135.865 141 135.723 140.95 135.623 140.85C135.523 140.733 135.473 140.592 135.473 140.425V124.1C135.473 123.917 135.523 123.775 135.623 123.675C135.723 123.558 135.865 123.5 136.048 123.5H137.198C137.398 123.5 137.548 123.55 137.648 123.65C137.748 123.733 137.807 123.8 137.823 123.85L146.123 136.6V124.1C146.123 123.917 146.173 123.775 146.273 123.675C146.373 123.558 146.515 123.5 146.698 123.5H147.898C148.082 123.5 148.223 123.558 148.323 123.675C148.44 123.775 148.498 123.917 148.498 124.1V140.4C148.498 140.567 148.44 140.708 148.323 140.825C148.223 140.942 148.09 141 147.923 141H146.723C146.54 141 146.398 140.95 146.298 140.85C146.215 140.75 146.157 140.683 146.123 140.65L137.848 128.025V140.425C137.848 140.592 137.79 140.733 137.673 140.85C137.573 140.95 137.432 141 137.248 141H136.048Z" fill="#FCFCFC"/>
<g filter="url(#filter0_f_358_293)">
<path d="M207 115C207 166.396 165.553 208 114.5 208C63.4467 208 22 166.396 22 115C22 63.6044 63.4467 22 114.5 22C165.553 22 207 63.6044 207 115Z" stroke="url(#paint0_linear_358_293)" stroke-opacity="0.5" stroke-width="14"/>
</g>
<defs>
<filter id="filter0_f_358_293" x="0" y="0" width="229" height="230" filterUnits="userSpaceOnUse" color-interpolation-filters="sRGB">
<feFlood flood-opacity="0" result="BackgroundImageFix"/>
<feBlend mode="normal" in="SourceGraphic" in2="BackgroundImageFix" result="shape"/>
<feGaussianBlur stdDeviation="7.5" result="effect1_foregroundBlur_358_293"/>
</filter>
<linearGradient id="paint0_linear_358_293" x1="114.5" y1="15" x2="114.5" y2="215" gradientUnits="userSpaceOnUse">
<stop stop-color="#89CEEB"/>
<stop offset="1" stop-color="white"/>
</linearGradient>
</defs>
</svg>
